<svg xmlns="http://www.w3.org/2000/svg" xmlns:xlink="http://www.w3.org/1999/xlink" viewBox="0,0,256,256" width="48px" height="48px" fill-rule="nonzero">
	<g fill="#ffffff" fill-rule="nonzero" stroke="none" stroke-width="1" stroke-linecap="butt" stroke-linejoin="miter" stroke-miterlimit="10" stroke-dasharray="" stroke-dashoffset="0" font-family="none" font-weight="none" font-size="none" text-anchor="none" style="mix-blend-mode: normal">
		<g transform="scale(5.33333,5.33333)">
			<path d="M22.916,19.6c0.339,-0.493 0.71,-0.558 1.012,-0.558c0.3,0 0.802,0.064 1.141,0.558c4.418,6.017 13.579,21.891 14.426,22.755c1.255,1.28 2.977,0.483 3.976,-0.969c0.986,-1.43 1.259,-2.434 1.259,-3.504c0,-0.729 -14.267,-27.05 -15.706,-29.242c-1.382,-2.108 -1.832,-2.64 -4.195,-2.64h-1.769c-2.359,0 -2.7,0.532 -4.081,2.638c-1.441,2.196 -15.709,28.517 -15.709,29.246c0,1.072 0.272,2.074 1.259,3.504c0.999,1.452 2.721,2.252 3.976,0.969c0.847,-0.864 9.995,-16.737 14.411,-22.752z">
			</path>
		</g>
	</g>
</svg>
